<svg width="431" height="899" viewBox="0 0 431 899" fill="none" xmlns="http://www.w3.org/2000/svg">
<path fill-rule="evenodd" clip-rule="evenodd" d="M3.94507 65.0834C3.94507 29.1388 32.2089 0 67.0674 0H363.933C398.794 0 427.055 29.1383 427.055 65.0834V833.917C427.055 869.861 398.791 899 363.933 899H67.0674C32.2059 899 3.94507 869.862 3.94507 833.917V65.0834Z" fill="#444444"/>
<path fill-rule="evenodd" clip-rule="evenodd" d="M68.0527 5.08484H362.947C395.63 5.08484 422.124 32.4036 422.124 66.1029V832.897C422.124 866.596 395.63 893.915 362.947 893.915H68.0527C35.3706 893.915 8.87646 866.596 8.87646 832.897V66.1029C8.87646 32.4036 35.3706 5.08484 68.0527 5.08484Z" fill="#141414"/>
<rect x="421.137" y="69.6623" width="5.91762" height="12.2036" fill="#141414"/>
<rect x="3.94507" y="69.6623" width="5.91762" height="12.2036" fill="#141414"/>
<rect x="421.137" y="818.151" width="5.91762" height="12.2036" fill="#141414"/>
<rect x="3.94507" y="818.151" width="5.91762" height="12.2036" fill="#141414"/>
<path fill-rule="evenodd" clip-rule="evenodd" d="M247.554 840.524C247.554 859.059 232.982 874.084 215.007 874.084C197.032 874.084 182.46 859.059 182.46 840.524C182.46 821.99 197.032 806.964 215.007 806.964C232.982 806.964 247.554 821.99 247.554 840.524ZM243.116 840.524C243.116 856.532 230.531 869.508 215.007 869.508C199.483 869.508 186.898 856.532 186.898 840.524C186.898 824.517 199.483 811.541 215.007 811.541C230.531 811.541 243.116 824.517 243.116 840.524Z" fill="#444444"/>
<path fill-rule="evenodd" clip-rule="evenodd" d="M149.42 66.6114C154.05 66.6114 157.803 62.7413 157.803 57.9672C157.803 53.1931 154.05 49.323 149.42 49.323C144.79 49.323 141.037 53.1931 141.037 57.9672C141.037 62.7413 144.79 66.6114 149.42 66.6114Z" fill="#444444"/>
<path fill-rule="evenodd" clip-rule="evenodd" d="M215.5 35.0854C218.223 35.0854 220.431 32.8088 220.431 30.0006C220.431 27.1923 218.223 24.9157 215.5 24.9157C212.776 24.9157 210.569 27.1923 210.569 30.0006C210.569 32.8088 212.776 35.0854 215.5 35.0854Z" fill="#444444"/>
<path fill-rule="evenodd" clip-rule="evenodd" d="M181.967 54.4078H249.033C250.94 54.4078 252.485 56.0014 252.485 57.9672C252.485 59.933 250.94 61.5266 249.033 61.5266H181.967C180.06 61.5266 178.515 59.933 178.515 57.9672C178.515 56.0014 180.06 54.4078 181.967 54.4078" fill="#444444"/>
<path d="M0 195.135C0 192.956 1.76627 191.19 3.94508 191.19V191.19V258.31V258.31C1.76627 258.31 0 256.544 0 254.365V195.135Z" fill="#444444"/>
<path d="M0 277.001C0 274.822 1.76627 273.056 3.94508 273.056V273.056V340.176V340.176C1.76627 340.176 0 338.41 0 336.231V277.001Z" fill="#444444"/>
<path d="M0 117.846C0 115.667 1.76627 113.9 3.94508 113.9V113.9V150.511V150.511C1.76627 150.511 0 148.745 0 146.566V117.846Z" fill="#444444"/>
<path d="M427.055 191.19V191.19C429.234 191.19 431 192.956 431 195.135V254.365C431 256.544 429.234 258.31 427.055 258.31V258.31V191.19Z" fill="#444444"/>
<path fill-rule="evenodd" clip-rule="evenodd" d="M30.0813 110.85H399.933V789.167H30.0813V110.85Z" fill="white"/>
<path d="M85.4292 427.99L76.9565 451.317H73.4937L83.2495 425.723H85.4819L85.4292 427.99ZM92.5308 451.317L84.0405 427.99L83.9878 425.723H86.2202L96.0112 451.317H92.5308ZM92.0913 441.842V444.619H77.7124V441.842H92.0913ZM106.365 451.317H101.021L101.056 448.557H106.365C108.193 448.557 109.716 448.176 110.935 447.414C112.154 446.641 113.068 445.563 113.677 444.18C114.298 442.785 114.609 441.156 114.609 439.293V437.729C114.609 436.264 114.433 434.963 114.082 433.826C113.73 432.678 113.214 431.711 112.535 430.926C111.855 430.129 111.023 429.526 110.039 429.115C109.066 428.705 107.947 428.5 106.681 428.5H100.916V425.723H106.681C108.357 425.723 109.886 426.004 111.269 426.567C112.652 427.117 113.841 427.92 114.837 428.975C115.845 430.018 116.619 431.283 117.158 432.772C117.697 434.248 117.966 435.912 117.966 437.764V439.293C117.966 441.145 117.697 442.815 117.158 444.303C116.619 445.78 115.839 447.039 114.82 448.082C113.812 449.125 112.593 449.928 111.164 450.49C109.746 451.041 108.146 451.317 106.365 451.317ZM102.832 425.723V451.317H99.439V425.723H102.832ZM129.99 451.317H124.646L124.681 448.557H129.99C131.818 448.557 133.341 448.176 134.56 447.414C135.779 446.641 136.693 445.563 137.302 444.18C137.923 442.785 138.234 441.156 138.234 439.293V437.729C138.234 436.264 138.058 434.963 137.707 433.826C137.355 432.678 136.839 431.711 136.16 430.926C135.48 430.129 134.648 429.526 133.664 429.115C132.691 428.705 131.572 428.5 130.306 428.5H124.541V425.723H130.306C131.982 425.723 133.511 426.004 134.894 426.567C136.277 427.117 137.466 427.92 138.462 428.975C139.47 430.018 140.244 431.283 140.783 432.772C141.322 434.248 141.591 435.912 141.591 437.764V439.293C141.591 441.145 141.322 442.815 140.783 444.303C140.244 445.78 139.464 447.039 138.445 448.082C137.437 449.125 136.218 449.928 134.789 450.49C133.371 451.041 131.771 451.317 129.99 451.317ZM126.457 425.723V451.317H123.064V425.723H126.457ZM159.257 425.723V451.317H155.865V425.723H159.257ZM166.5 425.723H169.787L178.171 446.588L186.539 425.723H189.843L179.437 451.317H176.871L166.5 425.723ZM165.427 425.723H168.328L168.802 441.332V451.317H165.427V425.723ZM187.998 425.723H190.898V451.317H187.523V441.332L187.998 425.723ZM206.648 427.99L198.175 451.317H194.712L204.468 425.723H206.701L206.648 427.99ZM213.75 451.317L205.259 427.99L205.207 425.723H207.439L217.23 451.317H213.75ZM213.31 441.842V444.619H198.931V441.842H213.31ZM239.361 438.573V447.942C239.044 448.41 238.541 448.938 237.849 449.524C237.158 450.098 236.203 450.602 234.984 451.035C233.777 451.457 232.218 451.668 230.308 451.668C228.75 451.668 227.314 451.399 226.001 450.86C224.701 450.309 223.57 449.512 222.609 448.469C221.66 447.414 220.921 446.137 220.394 444.637C219.878 443.125 219.621 441.414 219.621 439.504V437.518C219.621 435.608 219.843 433.903 220.289 432.403C220.746 430.903 221.414 429.631 222.292 428.588C223.171 427.533 224.25 426.737 225.527 426.198C226.804 425.647 228.269 425.371 229.921 425.371C231.878 425.371 233.513 425.711 234.826 426.391C236.15 427.059 237.181 427.985 237.919 429.168C238.669 430.352 239.15 431.699 239.361 433.211H235.968C235.816 432.285 235.511 431.442 235.054 430.68C234.609 429.918 233.97 429.309 233.138 428.852C232.306 428.383 231.234 428.149 229.921 428.149C228.738 428.149 227.712 428.365 226.845 428.799C225.978 429.233 225.263 429.854 224.701 430.662C224.138 431.471 223.716 432.449 223.435 433.598C223.166 434.746 223.031 436.041 223.031 437.483V439.504C223.031 440.981 223.201 442.299 223.541 443.459C223.892 444.619 224.39 445.61 225.035 446.43C225.679 447.239 226.447 447.854 227.337 448.276C228.24 448.698 229.236 448.908 230.326 448.908C231.533 448.908 232.511 448.809 233.261 448.61C234.011 448.399 234.597 448.153 235.019 447.871C235.441 447.578 235.763 447.303 235.986 447.045V441.315H230.062V438.573H239.361ZM261.246 448.557V451.317H247.693V448.557H261.246ZM248.378 425.723V451.317H244.986V425.723H248.378ZM259.453 436.727V439.487H247.693V436.727H259.453ZM261.07 425.723V428.5H247.693V425.723H261.07ZM92.6714 478.727V481.487H78.8198V478.727H92.6714ZM79.3472 467.723V493.317H75.9546V467.723H79.3472ZM95.6245 467.723V493.317H92.2495V467.723H95.6245ZM117.914 490.557V493.317H104.361V490.557H117.914ZM105.046 467.723V493.317H101.654V467.723H105.046ZM116.121 478.727V481.487H104.361V478.727H116.121ZM117.738 467.723V470.5H104.361V467.723H117.738ZM122.115 467.723H130.587C132.509 467.723 134.132 468.016 135.457 468.602C136.792 469.188 137.806 470.055 138.498 471.203C139.201 472.34 139.552 473.74 139.552 475.405C139.552 476.576 139.312 477.649 138.832 478.621C138.363 479.582 137.683 480.403 136.792 481.082C135.914 481.75 134.859 482.248 133.628 482.576L132.679 482.946H124.716L124.681 480.186H130.693C131.912 480.186 132.925 479.975 133.734 479.553C134.542 479.119 135.152 478.539 135.562 477.813C135.972 477.086 136.177 476.283 136.177 475.405C136.177 474.42 135.984 473.559 135.597 472.821C135.21 472.082 134.601 471.514 133.769 471.115C132.949 470.705 131.888 470.5 130.587 470.5H125.507V493.317H122.115V467.723ZM137.074 493.317L130.851 481.715L134.384 481.698L140.695 493.106V493.317H137.074ZM160.558 490.557V493.317H147.005V490.557H160.558ZM147.691 467.723V493.317H144.298V467.723H147.691ZM158.765 478.727V481.487H147.005V478.727H158.765ZM160.382 467.723V470.5H147.005V467.723H160.382Z" fill="white"/>
</svg>
