<svg width="44" height="44" viewBox="0 0 44 44" fill="none" xmlns="http://www.w3.org/2000/svg">
<path d="M22.0034 31.2929L12.5949 21.8844C11.8445 21.1339 11.3441 20.2614 11.094 19.2668C10.8499 18.2723 10.853 17.2839 11.1031 16.3015C11.3533 15.3131 11.8506 14.4528 12.5949 13.7206C13.3576 12.9701 14.2271 12.4728 15.2033 12.2288C16.1857 11.9786 17.165 11.9786 18.1412 12.2288C19.1235 12.4789 19.996 12.9762 20.7587 13.7206L22.0034 14.9287L23.2481 13.7206C24.0169 12.9762 24.8894 12.4789 25.8657 12.2288C26.8419 11.9786 27.8181 11.9786 28.7944 12.2288C29.7767 12.4728 30.6492 12.9701 31.4119 13.7206C32.1563 14.4528 32.6536 15.3131 32.9037 16.3015C33.1539 17.2839 33.1539 18.2723 32.9037 19.2668C32.6597 20.2614 32.1624 21.1339 31.4119 21.8844L22.0034 31.2929Z" fill="#F80202"/>
</svg>
